<svg width="10" height="17" viewBox="0 0 10 17" fill="none" xmlns="http://www.w3.org/2000/svg">
<path d="M8.75005 14.425C9.05005 14.725 9.14172 15.05 9.02505 15.4C8.90838 15.7333 8.66672 15.9583 8.30005 16.075C7.95005 16.1917 7.63338 16.1083 7.35005 15.825L0.325049 8.825C0.108383 8.59167 4.93526e-05 8.35833 4.93526e-05 8.125C4.93526e-05 7.875 0.108383 7.64167 0.325049 7.425L7.35005 0.424999C7.63338 0.141666 7.95005 0.0583324 8.30005 0.174998C8.65005 0.291665 8.88338 0.524999 9.00005 0.874999C9.13338 1.20833 9.05005 1.525 8.75005 1.825L2.47505 8.125L8.75005 14.425Z" fill="#020202"/>
</svg>
