<svg width="28" height="28" viewBox="0 0 28 28" fill="none" xmlns="http://www.w3.org/2000/svg">
<path d="M3.61719 23.0415V21.5872C3.61751 19.4197 5.13905 17.6798 7.03003 16.5422C8.95241 15.386 11.4759 14.7001 13.9993 14.7C16.5224 14.7 19.0472 15.3845 20.9702 16.5405C22.8615 17.6777 24.3851 19.4189 24.3831 21.5872V23.0415C24.3831 23.6294 24.1493 24.1929 23.7336 24.6086C23.3179 25.0244 22.7544 25.2581 22.1665 25.2581H5.83374C5.24598 25.2581 4.68228 25.0242 4.2666 24.6086C3.8509 24.1929 3.61719 23.6294 3.61719 23.0415ZM17.1541 7.99561C17.1539 7.15927 16.8225 6.35683 16.2312 5.76538C15.6396 5.17377 14.8359 4.84082 13.9993 4.84082C13.1628 4.84097 12.3605 5.1739 11.769 5.76538C11.1776 6.35686 10.8446 7.15914 10.8445 7.99561C10.8445 8.40988 10.9269 8.82112 11.0854 9.20386C11.244 9.58643 11.4762 9.93471 11.769 10.2275C12.0619 10.5203 12.4101 10.7526 12.7927 10.9111C13.1752 11.0695 13.5853 11.1503 13.9993 11.1504C14.4135 11.1504 14.8248 11.0697 15.2075 10.9111C15.5902 10.7526 15.9383 10.5204 16.2312 10.2275C16.5241 9.93466 16.7563 9.58651 16.9148 9.20386C17.0733 8.82112 17.1541 8.40988 17.1541 7.99561ZM5.71582 23.0415C5.71582 23.0722 5.72848 23.1017 5.75 23.1235C5.77188 23.1454 5.8028 23.1577 5.83374 23.1577H22.1665C22.1974 23.1577 22.2267 23.1454 22.2485 23.1235C22.2704 23.1017 22.2827 23.0724 22.2827 23.0415V21.5872L22.2742 21.3787C22.1824 20.3357 21.39 19.2447 19.8884 18.3418C18.3179 17.3975 16.1728 16.8003 13.9993 16.8003C11.826 16.8004 9.68328 17.3976 8.11353 18.3418C6.51298 19.3045 5.71615 20.4817 5.71582 21.5872V23.0415ZM19.2544 7.99561C19.2544 8.68566 19.1186 9.36955 18.8545 10.0071C18.5904 10.6446 18.2025 11.223 17.7146 11.7109C17.2267 12.1989 16.6483 12.5868 16.0107 12.8508C15.3732 13.1149 14.6893 13.2507 13.9993 13.2507C13.3096 13.2507 12.6267 13.1147 11.9895 12.8508C11.352 12.5868 10.7719 12.1989 10.2839 11.7109C9.79632 11.2232 9.40972 10.6443 9.14575 10.0071C8.88168 9.36955 8.74585 8.68566 8.74585 7.99561C8.746 6.60219 9.29863 5.26558 10.2839 4.28027C11.2692 3.29497 12.6058 2.74234 13.9993 2.74219C15.3926 2.74219 16.7292 3.29519 17.7146 4.28027C18.6999 5.26558 19.2542 6.60219 19.2544 7.99561Z" fill="#F56401"/>
</svg>
