<svg width="20" height="20" viewBox="0 0 20 20" fill="none" xmlns="http://www.w3.org/2000/svg">
<path d="M10 7.5C8.645 7.5 7.5 8.645 7.5 10C7.5 11.355 8.645 12.5 10 12.5C11.355 12.5 12.5 11.355 12.5 10C12.5 8.645 11.355 7.5 10 7.5Z" fill="#A0A0A0"/>
<path d="M16.6667 4.16602H14.5117L12.2559 1.91018C12.0997 1.75389 11.8877 1.66606 11.6667 1.66602H8.33341C8.11242 1.66606 7.90049 1.75389 7.74425 1.91018L5.48841 4.16602H3.33341C2.41425 4.16602 1.66675 4.91352 1.66675 5.83268V14.9993C1.66675 15.9185 2.41425 16.666 3.33341 16.666H16.6667C17.5859 16.666 18.3334 15.9185 18.3334 14.9993V5.83268C18.3334 4.91352 17.5859 4.16602 16.6667 4.16602ZM10.0001 14.166C7.74175 14.166 5.83341 12.2577 5.83341 9.99935C5.83341 7.74102 7.74175 5.83268 10.0001 5.83268C12.2584 5.83268 14.1667 7.74102 14.1667 9.99935C14.1667 12.2577 12.2584 14.166 10.0001 14.166Z" fill="#A0A0A0"/>
</svg>
