<svg width="32" height="32" viewBox="0 0 32 32" fill="none" xmlns="http://www.w3.org/2000/svg">
<rect width="32" height="32" rx="16" fill="#020202"/>
<path d="M10.45 22.5676C10.25 22.6231 10.0611 22.6065 9.8833 22.5176C9.70552 22.4287 9.57219 22.2954 9.4833 22.1176C9.39441 21.9398 9.37774 21.7509 9.4333 21.5509L10.0666 18.9842L18.5666 10.5009C18.8333 10.2342 19.1389 10.0565 19.4833 9.96758C19.8277 9.86758 20.1722 9.86758 20.5166 9.96758C20.8611 10.0565 21.1666 10.2342 21.4333 10.5009L21.5 10.5676C21.7666 10.8342 21.9444 11.1398 22.0333 11.4842C22.1333 11.8287 22.1333 12.1731 22.0333 12.5176C21.9444 12.862 21.7666 13.1676 21.5 13.4342L13.0166 21.9342L10.45 22.5676ZM10.7166 21.9009C10.7277 21.8676 10.7277 21.8176 10.7166 21.7509C10.7166 21.6842 10.7055 21.6009 10.6833 21.5009C10.6611 21.3898 10.6277 21.2787 10.5833 21.1676L12.3166 20.7342L20.5666 12.5009C20.7444 12.3231 20.8333 12.1565 20.8333 12.0009C20.8333 11.8454 20.7444 11.6787 20.5666 11.5009L20.5 11.4342C20.3222 11.2565 20.1555 11.1676 20 11.1676C19.8444 11.1676 19.6777 11.2565 19.5 11.4342L11.2666 19.6842L10.7166 21.9009ZM17.5333 12.4676L18.4666 11.5342L20.4666 13.5342L19.5333 14.4676L17.5333 12.4676Z" fill="white"/>
</svg>
