<svg width="20" height="20" viewBox="0 0 20 20" fill="none" xmlns="http://www.w3.org/2000/svg">
<g clip-path="url(#clip0_6465_10573)">
<mask id="mask0_6465_10573" style="mask-type:luminance" maskUnits="userSpaceOnUse" x="0" y="0" width="20" height="20">
<path d="M20 0H0V20H20V0Z" fill="white"/>
</mask>
<g mask="url(#mask0_6465_10573)">
<path d="M19.6 10.2336C19.6 9.52359 19.54 8.84359 19.42 8.18359H10V12.0536H15.38C15.15 13.3036 14.44 14.3636 13.38 15.0736V17.5836H16.61C18.5 15.8436 19.59 13.2836 19.59 10.2336H19.6Z" fill="#4285F4"/>
<path d="M9.99957 20.0023C12.6996 20.0023 14.9596 19.1023 16.6196 17.5823L13.3896 15.0723C12.4896 15.6723 11.3496 16.0223 9.99957 16.0223C7.39957 16.0223 5.18957 14.2623 4.39957 11.9023H1.05957V14.4923C2.70957 17.7623 6.08957 20.0023 9.99957 20.0023Z" fill="#34A853"/>
<path d="M4.4 11.9017C4.2 11.3017 4.09 10.6617 4.09 10.0017C4.09 9.34172 4.2 8.70172 4.4 8.10172V5.51172H1.06C0.38 6.86172 0 8.39172 0 10.0017C0 11.6117 0.39 13.1417 1.06 14.4917L4.4 11.9017Z" fill="#FBBC04"/>
<path d="M9.99957 3.98175C11.4696 3.98175 12.7896 4.48175 13.8196 5.48175L16.6896 2.61175C14.9596 1.00175 12.6896 0.0117521 9.99957 0.0117521C6.08957 0.0017521 2.70957 2.24175 1.05957 5.51175L4.39957 8.10175C5.18957 5.74175 7.38957 3.98175 9.99957 3.98175Z" fill="#E94235"/>
</g>
</g>
<defs>
<clipPath id="clip0_6465_10573">
<rect width="20" height="20" fill="white"/>
</clipPath>
</defs>
</svg>
