<svg width="20" height="20" viewBox="0 0 20 20" fill="none" xmlns="http://www.w3.org/2000/svg">
<path d="M10.1533 8.76172V11.7256H14.2721C14.0912 12.6787 13.5485 13.4858 12.7345 14.0285L15.2183 15.9557C16.6654 14.62 17.5003 12.6579 17.5003 10.3272C17.5003 9.78455 17.4516 9.26269 17.3612 8.7618L10.1533 8.76172Z" fill="#4285F4"/>
<path d="M5.8634 11.6099L5.30321 12.0387L3.32031 13.5832C4.5796 16.0809 7.16061 17.8064 10.1523 17.8064C12.2186 17.8064 13.951 17.1245 15.2172 15.9557L12.7334 14.0285C12.0516 14.4877 11.1819 14.766 10.1523 14.766C8.16247 14.766 6.47187 13.4232 5.86653 11.6143L5.8634 11.6099Z" fill="#34A853"/>
<path d="M3.32092 6.72314C2.79914 7.7528 2.5 8.91471 2.5 10.1531C2.5 11.3915 2.79914 12.5534 3.32092 13.5831C3.32092 13.59 5.86737 11.6072 5.86737 11.6072C5.71431 11.148 5.62384 10.661 5.62384 10.153C5.62384 9.64507 5.71431 9.15808 5.86737 8.69889L3.32092 6.72314Z" fill="#FBBC05"/>
<path d="M10.1524 5.54735C11.2796 5.54735 12.2814 5.93695 13.0815 6.68836L15.2731 4.4968C13.9442 3.25841 12.2188 2.5 10.1524 2.5C7.16077 2.5 4.5796 4.21848 3.32031 6.72316L5.86669 8.69907C6.47195 6.89012 8.16263 5.54735 10.1524 5.54735Z" fill="#EA4335"/>
</svg>
