<svg width="24" height="24" viewBox="0 0 24 24" fill="none" xmlns="http://www.w3.org/2000/svg">
<path d="M12 7.375C14.55 7.375 16.65 9.45 16.65 12C16.65 14.55 14.55 16.65 12 16.65C9.45 16.65 7.375 14.55 7.375 12C7.375 9.45 9.45 7.375 12 7.375ZM12 15C13.65 15 15 13.65 15 12C15 10.35 13.65 9 12 9C10.35 9 9 10.35 9 12C9 13.65 10.35 15 12 15ZM16.8 8.275C16.225 8.275 15.75 7.775 15.75 7.2C15.75 6.6 16.225 6.125 16.8 6.125C17.4 6.125 17.9 6.6 17.9 7.2C17.9 7.775 17.4 8.275 16.8 8.275ZM12 3C14.45 3 14.75 3.025 15.725 3.05C16.675 3.1 17.35 3.25 17.925 3.475C18.5 3.7 19 4.025 19.5 4.5C20 5.025 20.3 5.5 20.525 6.1C20.75 6.675 20.925 7.35 20.95 8.3C20.975 9.25 21 9.55 21 12C21 14.45 20.975 14.75 20.95 15.725C20.925 16.65 20.75 17.35 20.525 17.9C20.3 18.5 19.975 19 19.5 19.5C19 19.975 18.5 20.3 17.9 20.525C17.35 20.75 16.65 20.925 15.725 20.95C14.75 20.975 14.45 21 12 21C9.55 21 9.25 20.975 8.3 20.95C7.35 20.925 6.675 20.75 6.1 20.525C5.5 20.3 5.025 19.975 4.5 19.5C4.025 19 3.7 18.5 3.475 17.9C3.25 17.35 3.075 16.65 3.05 15.725C3.025 14.75 3 14.45 3 12C3 9.55 3.025 9.25 3.05 8.275C3.075 7.35 3.25 6.675 3.475 6.1C3.7 5.5 4.025 5.025 4.5 4.5C5.025 4.025 5.5 3.7 6.1 3.475C6.675 3.25 7.35 3.075 8.3 3.05C9.25 3.025 9.55 3 12 3ZM12 4.625C9.6 4.625 9.325 4.65 8.35 4.65C7.5 4.725 7.025 4.85 6.7 4.975C6.275 5.15 5.975 5.35 5.65 5.65C5.35 5.95 5.15 6.25 4.975 6.675C4.85 7 4.725 7.475 4.675 8.35C4.65 9.3 4.65 9.6 4.65 12C4.65 14.4 4.65 14.675 4.675 15.65C4.725 16.5 4.85 16.975 4.975 17.3C5.15 17.725 5.35 18.025 5.65 18.35C5.975 18.65 6.275 18.85 6.7 19C7.025 19.125 7.5 19.275 8.35 19.325C9.325 19.35 9.6 19.35 12 19.35C14.4 19.35 14.675 19.35 15.65 19.325C16.525 19.275 17 19.125 17.325 19C17.75 18.85 18.05 18.65 18.35 18.35C18.65 18.025 18.85 17.725 19.025 17.3C19.15 16.975 19.3 16.5 19.35 15.65C19.35 14.675 19.375 14.4 19.375 12C19.375 9.6 19.35 9.325 19.35 8.35C19.3 7.5 19.15 7 19.025 6.675C18.85 6.25 18.65 5.95 18.35 5.65C18.05 5.35 17.75 5.15 17.325 4.975C17 4.85 16.525 4.725 15.65 4.65C14.7 4.65 14.4 4.625 12 4.625Z" fill="black"/>
</svg>
