<svg width="18" height="18" viewBox="0 0 18 18" fill="none" xmlns="http://www.w3.org/2000/svg">
<path d="M9 4.375C11.55 4.375 13.65 6.45 13.65 9C13.65 11.55 11.55 13.65 9 13.65C6.45 13.65 4.375 11.55 4.375 9C4.375 6.45 6.45 4.375 9 4.375ZM9 12C10.65 12 12 10.65 12 9C12 7.35 10.65 6 9 6C7.35 6 6 7.35 6 9C6 10.65 7.35 12 9 12ZM13.8 5.275C13.225 5.275 12.75 4.775 12.75 4.2C12.75 3.6 13.225 3.125 13.8 3.125C14.4 3.125 14.9 3.6 14.9 4.2C14.9 4.775 14.4 5.275 13.8 5.275ZM9 0C11.45 0 11.75 0.025001 12.725 0.0500007C13.675 0.0999999 14.35 0.25 14.925 0.475C15.5 0.700001 16 1.025 16.5 1.5C17 2.025 17.3 2.5 17.525 3.1C17.75 3.675 17.925 4.35 17.95 5.3C17.975 6.25 18 6.55 18 9C18 11.45 17.975 11.75 17.95 12.725C17.925 13.65 17.75 14.35 17.525 14.9C17.3 15.5 16.975 16 16.5 16.5C16 16.975 15.5 17.3 14.9 17.525C14.35 17.75 13.65 17.925 12.725 17.95C11.75 17.975 11.45 18 9 18C6.55 18 6.25 17.975 5.3 17.95C4.35 17.925 3.675 17.75 3.1 17.525C2.5 17.3 2.025 16.975 1.5 16.5C1.025 16 0.7 15.5 0.475 14.9C0.25 14.35 0.0750003 13.65 0.0500003 12.725C0.0250003 11.75 0 11.45 0 9C0 6.55 0.0250003 6.25 0.0500003 5.275C0.0750003 4.35 0.25 3.675 0.475 3.1C0.7 2.5 1.025 2.025 1.5 1.5C2.025 1.025 2.5 0.700001 3.1 0.475C3.675 0.25 4.35 0.0750003 5.3 0.0500007C6.25 0.025001 6.55 0 9 0ZM9 1.625C6.6 1.625 6.325 1.65 5.35 1.65C4.5 1.725 4.025 1.85 3.7 1.975C3.275 2.15 2.975 2.35 2.65 2.65C2.35 2.95 2.15 3.25 1.975 3.675C1.85 4 1.725 4.475 1.675 5.35C1.65 6.3 1.65 6.6 1.65 9C1.65 11.4 1.65 11.675 1.675 12.65C1.725 13.5 1.85 13.975 1.975 14.3C2.15 14.725 2.35 15.025 2.65 15.35C2.975 15.65 3.275 15.85 3.7 16C4.025 16.125 4.5 16.275 5.35 16.325C6.325 16.35 6.6 16.35 9 16.35C11.4 16.35 11.675 16.35 12.65 16.325C13.525 16.275 14 16.125 14.325 16C14.75 15.85 15.05 15.65 15.35 15.35C15.65 15.025 15.85 14.725 16.025 14.3C16.15 13.975 16.3 13.5 16.35 12.65C16.35 11.675 16.375 11.4 16.375 9C16.375 6.6 16.35 6.325 16.35 5.35C16.3 4.5 16.15 4 16.025 3.675C15.85 3.25 15.65 2.95 15.35 2.65C15.05 2.35 14.75 2.15 14.325 1.975C14 1.85 13.525 1.725 12.65 1.65C11.7 1.65 11.4 1.625 9 1.625Z" fill="#020202"/>
</svg>
