<svg width="28" height="28" viewBox="0 0 28 28" fill="none" xmlns="http://www.w3.org/2000/svg">
<path d="M13.9994 1.28516C19.7241 1.28516 24.381 5.93958 24.3832 11.6638L24.378 12.0518C24.2426 16.0639 21.7614 19.6656 19.4545 22.1929C18.2443 23.5186 17.0366 24.5983 16.1322 25.3459C15.6792 25.7205 15.2993 26.0133 15.0316 26.2141C14.8983 26.3141 14.7927 26.3917 14.7189 26.4448C14.6819 26.4714 14.652 26.492 14.6317 26.5063C14.6216 26.5135 14.6135 26.5194 14.6078 26.5234C14.605 26.5254 14.6026 26.5274 14.6009 26.5286L14.5992 26.5303H14.5975L13.9925 26.9507L13.3927 26.5234C13.2024 26.3883 10.7822 24.7135 8.40929 22.0955C6.06474 19.5088 3.59857 15.819 3.61729 11.657C3.62 5.93883 8.2757 1.28552 13.9994 1.28516ZM13.9994 3.38379C9.43298 3.38415 5.71593 7.10232 5.71593 11.6621V11.6672C5.70104 15.0242 7.7244 18.2123 9.96617 20.6855C11.5418 22.4238 13.1446 23.7173 13.996 24.3616C14.2144 24.1936 14.486 23.9822 14.7941 23.7275C15.6449 23.0242 16.7771 22.0128 17.9044 20.7778C20.1983 18.2648 22.2979 15.0179 22.2828 11.6724V11.6672C22.2825 7.10123 18.5655 3.38379 13.9994 3.38379ZM17.6173 11.6672C17.617 9.66906 15.9976 8.05103 13.9994 8.05103C12.0014 8.05138 10.3835 9.66929 10.3832 11.6672C10.3832 13.6654 12.0012 15.2848 13.9994 15.2852C15.9978 15.2852 17.6173 13.6657 17.6173 11.6672ZM19.7159 11.6672C19.7159 14.8255 17.1576 17.3838 13.9994 17.3838C10.8414 17.3834 8.28282 14.8252 8.28282 11.6672C8.28313 8.50949 10.8416 5.95104 13.9994 5.95068C17.1574 5.95068 19.7156 8.50927 19.7159 11.6672Z" fill="#F56401"/>
</svg>
