<svg width="28" height="28" viewBox="0 0 28 28" fill="none" xmlns="http://www.w3.org/2000/svg">
<path d="M26.1587 23.7125L21.2368 11.7906C21.1459 11.5705 20.9917 11.3822 20.7937 11.2498C20.5957 11.1173 20.3629 11.0466 20.1247 11.0466C19.8865 11.0466 19.6537 11.1173 19.4557 11.2498C19.2578 11.3822 19.1036 11.5705 19.0127 11.7906L14.0908 23.7125C14.0296 23.8587 13.9979 24.0156 13.9975 24.1741C13.9971 24.3325 14.028 24.4896 14.0885 24.6361C14.1489 24.7826 14.2377 24.9157 14.3498 25.0278C14.4619 25.1399 14.595 25.2287 14.7415 25.2892C14.888 25.3496 15.045 25.3806 15.2035 25.3802C15.362 25.3798 15.5188 25.3481 15.665 25.2869C15.8113 25.2258 15.9439 25.1363 16.0555 25.0237C16.167 24.911 16.2552 24.7775 16.3149 24.6307L17.3173 22.2031H22.9321L23.9345 24.6307C24.0254 24.851 24.1796 25.0393 24.3777 25.1718C24.5757 25.3043 24.8086 25.375 25.0469 25.375C25.2446 25.3749 25.4392 25.326 25.6135 25.2328C25.7879 25.1396 25.9365 25.0048 26.0464 24.8405C26.1563 24.6761 26.2239 24.4872 26.2434 24.2905C26.2629 24.0937 26.2342 23.8952 26.1587 23.7125ZM18.311 19.7969L20.125 15.4027L21.939 19.7969H18.311ZM14.6475 18.7534C14.8344 18.4952 14.9112 18.1734 14.8611 17.8587C14.811 17.5439 14.638 17.2619 14.3801 17.0745C14.3691 17.0663 13.5598 16.4659 12.3845 15.1752C14.5529 12.2396 15.7812 8.89984 16.2821 7.32812H18.0469C18.366 7.32812 18.672 7.20137 18.8976 6.97574C19.1232 6.75011 19.25 6.44409 19.25 6.125C19.25 5.80591 19.1232 5.49989 18.8976 5.27426C18.672 5.04863 18.366 4.92188 18.0469 4.92188H11.7031V3.82812C11.7031 3.50904 11.5764 3.20302 11.3507 2.97739C11.1251 2.75176 10.8191 2.625 10.5 2.625C10.1809 2.625 9.87489 2.75176 9.64926 2.97739C9.42363 3.20302 9.29688 3.50904 9.29688 3.82812V4.92188H2.95312C2.63404 4.92188 2.32802 5.04863 2.10239 5.27426C1.87676 5.49989 1.75 5.80591 1.75 6.125C1.75 6.44409 1.87676 6.75011 2.10239 6.97574C2.32802 7.20137 2.63404 7.32812 2.95312 7.32812H13.7402C13.2196 8.80195 12.2609 11.1289 10.7986 13.2541C9.08086 10.9747 8.44266 9.49977 8.43773 9.48773C8.31198 9.19712 8.07673 8.9678 7.783 8.8495C7.48926 8.73121 7.16074 8.73349 6.86867 8.85584C6.57661 8.97819 6.34456 9.21076 6.22285 9.50309C6.10114 9.79542 6.09958 10.124 6.21852 10.4174C6.25023 10.4929 7.01422 12.2894 9.1093 15.0073C9.15961 15.0724 9.20937 15.1359 9.25914 15.1993C7.1132 17.6247 5.00773 19.1291 4.12672 19.6148C3.84657 19.7676 3.6386 20.0254 3.54856 20.3315C3.45851 20.6377 3.49376 20.967 3.64656 21.2472C3.79936 21.5273 4.05719 21.7353 4.36333 21.8254C4.66947 21.9154 4.99884 21.8801 5.27898 21.7273C5.39711 21.6628 7.9368 20.2568 10.8369 17.0466C12.0684 18.3635 12.915 18.9848 12.9659 19.0209C13.0938 19.1138 13.2389 19.1806 13.3927 19.2175C13.5465 19.2543 13.7061 19.2604 13.8622 19.2356C14.0184 19.2107 14.1682 19.1552 14.3029 19.0724C14.4377 18.9896 14.5548 18.8816 14.6475 18.7534Z" fill="#F56401"/>
</svg>
