<svg width="22" height="16" viewBox="0 0 22 16" fill="none" xmlns="http://www.w3.org/2000/svg">
<path d="M21.775 3.35C21.775 3.35 22 5.125 22 6.9V8.575C22 10.375 21.775 12.125 21.775 12.125C21.775 12.125 21.55 13.675 20.925 14.325C20.075 15.2 19.125 15.2 18.7 15.25C15.65 15.475 11 15.5 11 15.5C11 15.5 5.275 15.425 3.525 15.25C3.05 15.175 1.925 15.2 1.075 14.325C0.45 13.675 0.225 12.125 0.225 12.125C0.225 12.125 0 10.375 0 8.575V6.9C0 5.125 0.225 3.35 0.225 3.35C0.225 3.35 0.45 1.825 1.075 1.175C1.925 0.3 2.875 0.275 3.3 0.249999L11 0C11 0 15.65 0 18.7 0.249999C19.125 0.275 20.075 0.3 20.925 1.175C21.55 1.825 21.775 3.35 21.775 3.35ZM8.725 10.6L14.65 7.525L8.725 4.4V10.6Z" fill="#020202"/>
</svg>
