<svg width="169" height="167" viewBox="0 0 169 167" fill="none" xmlns="http://www.w3.org/2000/svg">
<g clip-path="url(#clip0_4740_3917)">
<path d="M30.7816 166.869C17.9064 166.288 6.36005 160.273 1.83813 146.177C0.418743 141.752 0.0603723 137.126 0.0563456 132.504C0.0321858 102.824 0.0442657 73.1427 0.0563456 43.4619C0.0563456 39.5155 -0.126866 35.5692 0.159025 31.6229C0.618062 25.3204 1.78579 19.211 5.35137 13.8413C9.7545 7.21318 15.9273 3.07387 23.6685 1.24043C26.5416 0.560926 29.4427 0.1287 32.3983 0.0844727C32.7587 0.205094 33.1291 0.146794 33.4956 0.146794C67.4139 0.150814 101.332 0.150814 135.251 0.146794C135.617 0.146794 135.988 0.201073 136.35 0.0884934C148.531 0.556906 158.575 4.8852 164.83 15.9341C167.26 20.2262 168.434 24.9284 168.724 29.8156C169.256 38.8059 168.859 47.8102 168.883 56.8066C168.952 81.735 168.932 106.661 168.919 131.59C168.917 136.65 168.64 141.712 166.922 146.527C163.413 156.369 156.505 162.658 146.463 165.508C143.562 166.333 140.584 166.763 137.564 166.871C136.396 166.757 135.231 166.827 134.061 166.894C132.49 166.982 130.918 166.823 129.348 166.821C99.5002 166.805 69.6548 166.785 39.8073 166.847C36.8014 166.853 33.7915 166.646 30.7856 166.865L30.7816 166.869Z" fill="#FF6633"/>
<path d="M30.7817 166.869C31.1079 166.61 31.4904 166.717 31.8488 166.717C66.5624 166.713 101.278 166.715 135.992 166.723C136.513 166.723 137.063 166.56 137.56 166.873C134.786 167.04 132.009 166.99 129.231 166.988C99.4258 166.962 69.6227 166.966 39.8175 166.994C36.8036 166.996 33.7937 167.012 30.7838 166.867L30.7817 166.869Z" fill="#FF6633"/>
<path d="M136.348 0.0904659C136.024 0.351812 135.639 0.241242 135.281 0.241242C101.375 0.245263 67.4685 0.245263 33.5622 0.239232C33.1736 0.239232 32.7549 0.367895 32.3965 0.0864452C36.5177 0.0703624 40.639 0.0442278 44.7603 0.0422174C73.6816 0.0221139 102.603 0.00804141 131.524 0C133.131 0 134.74 0.0583002 136.346 0.0904659H136.348Z" fill="#FF6633"/>
<path d="M80.4783 133.144C74.3417 133.055 65.5516 131.71 57.299 127.903C48.2713 123.735 41.3696 117.175 36.2981 108.68C32.4083 102.16 30.1675 95.0715 29.1468 87.5709C28.6917 84.2156 28.5065 80.8503 28.5508 77.4689C28.5669 76.317 28.6615 76.2185 29.785 76.5522C37.0893 78.7153 44.5849 79.8934 52.1308 80.7297C61.1525 81.7288 70.2084 82.1993 79.2844 82.4586C87.1666 82.6837 95.0286 82.4103 102.883 81.9339C112.2 81.369 121.48 80.3919 130.652 78.5907C133.505 78.0298 136.328 77.3463 139.112 76.514C139.758 76.321 140.139 76.3411 140.153 77.1613C140.34 89.3883 137.592 100.827 130.9 111.172C124.25 121.449 114.824 127.852 103.038 131.001C96.5708 132.727 90.0054 133.25 80.4763 133.148L80.4783 133.144Z" fill="#F9F5F4"/>
<path d="M85.0403 75.352C77.9675 75.4546 70.9028 75.153 63.8502 74.6866C55.2694 74.1197 46.7188 73.2311 38.279 71.5163C36.018 71.0579 33.7973 70.4367 31.6169 69.6748C30.8015 69.3893 30.5136 68.9169 30.5156 68.0344C30.5257 63.5251 32.4524 60.2061 36.5032 58.1696C36.8958 57.9725 36.9945 57.7192 37.0468 57.3192C37.4435 54.368 38.2629 51.5796 40.1413 49.1773C42.6237 46.0009 45.9256 44.4188 49.8817 44.0669C50.2824 44.0308 50.6025 44.0911 50.6992 43.4839C51.9917 35.3521 58.0115 30.5956 66.25 31.1464C67.3553 31.2208 68.4526 31.3535 69.4955 31.7395C70.0914 31.9606 70.4236 31.8159 70.8142 31.2992C73.192 28.161 76.22 26.0059 80.1137 25.057C87.1201 23.3503 94.2452 25.9677 98.2779 31.8641C98.6121 32.3526 98.894 32.3647 99.4215 32.2521C103.313 31.4178 107.173 31.4118 110.754 33.3799C114.709 35.5531 117.374 38.7616 117.98 43.3774C118.057 43.9664 118.296 44.081 118.786 44.1212C120.36 44.2519 121.908 44.5394 123.354 45.1907C128.419 47.4765 131.075 51.4992 131.695 56.9292C131.776 57.6288 131.967 58.0107 132.619 58.3726C136.475 60.5217 138.313 63.8669 138.327 68.2595C138.329 69.1823 137.715 69.4557 137.046 69.6989C134.401 70.6559 131.689 71.3896 128.929 71.9063C121.653 73.2633 114.302 74.0111 106.925 74.568C99.6389 75.1189 92.3447 75.4023 85.0383 75.35L85.0403 75.352Z" fill="#F9F5F4"/>
<path d="M85.1434 146.675C77.8955 146.722 71.4045 146.269 65.0425 144.619C63.3915 144.191 61.7527 143.706 60.2649 142.842C58.9703 142.09 58.1267 141.085 58.2455 139.442C58.3361 138.178 58.2455 136.901 58.2737 135.63C58.2978 134.535 58.628 134.326 59.5501 134.857C64.2734 137.575 69.4979 138.435 74.805 139.028C79.5786 139.561 84.3703 139.567 89.152 139.372C94.7731 139.143 100.356 138.533 105.699 136.589C106.928 136.143 108.075 135.522 109.237 134.929C110.193 134.44 110.554 134.643 110.572 135.681C110.596 137.152 110.608 138.624 110.572 140.095C110.539 141.491 109.642 142.345 108.542 142.998C106.469 144.233 104.147 144.745 101.814 145.2C96.0778 146.318 90.2814 146.752 85.1475 146.675H85.1434Z" fill="#F9F5F4"/>
<path d="M84.7829 118.187C81.1408 118.179 77.9859 117.586 75.1793 115.738C73.615 114.707 72.3365 113.402 71.7225 111.573C71.4466 110.752 71.4265 109.934 71.8553 109.148C72.7895 107.435 74.7867 107.242 75.9826 108.774C76.5987 109.564 77.1564 110.394 77.8852 111.098C79.3187 112.479 81.0119 113.249 83.0071 113.314C84.4124 113.36 85.8177 113.404 87.2009 113.056C89.4075 112.501 91.1429 111.285 92.3811 109.371C92.7818 108.752 93.1844 108.137 93.881 107.795C94.8937 107.299 95.9024 107.27 96.8205 107.95C97.7406 108.631 97.8674 109.622 97.5976 110.662C97.0098 112.928 95.5279 114.522 93.6113 115.742C90.8188 117.517 87.7283 118.227 84.7829 118.191V118.187Z" fill="#FF6633"/>
<path d="M65.5334 103.712C62.3382 103.718 59.9263 101.28 59.9122 98.0288C59.8961 94.5328 62.3886 91.8108 65.624 91.7927C68.8835 91.7746 71.4223 94.4021 71.4364 97.8077C71.4505 101.151 68.8976 103.704 65.5334 103.71V103.712Z" fill="#FF6633"/>
<path d="M108.59 97.675C108.59 101.272 105.665 104.03 102.21 103.688C100.257 103.495 98.5057 101.73 97.8212 99.2652C96.9192 96.0125 98.3789 92.8823 101.171 92.0762C104.946 90.9846 108.59 93.7347 108.588 97.675H108.59Z" fill="#FF6633"/>
<path d="M89.0754 43.88C89.0472 45.1787 87.7506 46.6563 86.5869 46.8352C85.8661 46.9478 85.3125 46.6261 84.9823 46.0411C83.9374 44.1936 82.5663 42.722 80.6637 41.7048C79.7074 41.1942 79.4054 40.0262 79.7597 39.1838C80.1825 38.1827 81.3603 37.5032 82.4475 37.6318C84.2595 37.8489 88.4915 41.544 88.9586 43.3211C89.017 43.5443 89.0552 43.7755 89.0754 43.878V43.88Z" fill="#FF6633"/>
<path d="M72.7817 63.5613C71.1147 63.5472 70.0637 62.1219 70.4563 60.6262C70.6536 59.8703 71.0362 59.2029 71.5616 58.6319C73.0253 57.0397 74.797 55.9702 76.9352 55.542C77.7264 55.3832 78.4774 55.5038 79.1518 55.922C79.9129 56.3944 80.3699 57.0739 80.235 58.0127C80.1102 58.8872 79.5988 59.4562 78.7431 59.7055C78.3606 59.818 77.968 59.9045 77.5955 60.0472C76.1319 60.6081 74.8393 61.4022 74.0138 62.7954C73.6957 63.3341 73.2448 63.6176 72.7817 63.5613Z" fill="#FF6633"/>
<path d="M106.5 53.0773C105.999 53.0251 105.363 52.8944 104.676 53.0231C103.611 53.2221 102.734 53.6422 102.031 54.4846C101.185 55.4998 100.255 55.5199 99.2807 54.6153C97.9418 53.3709 97.8774 51.3645 99.3673 50.3553C101.463 48.936 103.827 48.2485 106.396 48.8697C107.223 49.0687 107.94 49.5049 108.351 50.3111C108.993 51.5756 108.083 53.0673 106.5 53.0793V53.0773Z" fill="#FF6633"/>
<path d="M100.152 66.802C100.122 67.6604 99.798 68.3681 99.0149 68.7742C98.2538 69.1682 97.5069 68.9973 96.8566 68.5028C96.3271 68.1007 95.8519 67.6263 95.3526 67.184C94.5231 66.4522 93.6333 65.831 92.6105 65.3747C91.2656 64.7756 90.726 63.2678 91.3361 62.0435C91.8897 60.9338 93.2306 60.5719 94.5433 61.2494C96.2707 62.14 97.8975 63.1854 99.1961 64.667C99.7316 65.2782 100.193 65.9275 100.15 66.802H100.152Z" fill="#FF6633"/>
<path d="M60.4437 50.1101C59.0806 50.1242 58.0297 48.6647 58.4042 47.2835C58.6719 46.2965 59.3343 45.5888 60.0994 44.9757C61.4221 43.9162 62.9301 43.1965 64.5569 42.7462C65.793 42.4044 67.148 43.1563 67.5406 44.3344C67.9231 45.4762 67.3332 46.5618 66.0145 47.0865C64.3918 47.7319 62.7872 48.3953 61.5389 49.6859C61.255 49.9794 60.8705 50.1282 60.4437 50.1061V50.1101Z" fill="#FF6633"/>
<path d="M50.1258 58.0328C50.4801 58.1112 50.8123 58.1595 51.1284 58.26C53.4337 58.9877 55.1571 60.4634 56.4033 62.4918C56.9167 63.3261 56.8845 64.2227 56.2684 65.0289C55.5295 65.9938 54.247 66.1426 53.3592 65.3103C51.8915 63.9372 50.46 62.5501 48.5252 61.8043C47.8628 61.5489 47.736 60.8473 47.7722 60.1799C47.8185 59.3416 48.2453 58.7184 48.9842 58.3505C49.3345 58.1776 49.7493 58.1334 50.1258 58.0328Z" fill="#FF6633"/>
<path d="M114.852 58.6541C115.218 58.6199 115.641 58.7204 116.009 58.9677C117.709 60.1075 119.037 61.5711 119.839 63.4689C120.231 64.3996 120.01 65.238 119.303 65.9356C118.417 66.8101 117.169 66.7799 116.424 65.7888C115.419 64.4559 114.383 63.1613 113.223 61.9551C112.667 61.3761 112.438 60.6182 112.838 59.8321C113.231 59.0602 113.873 58.6319 114.854 58.652L114.852 58.6541Z" fill="#FF6633"/>
</g>
<defs>
<clipPath id="clip0_4740_3917">
<rect width="169" height="167" fill="white"/>
</clipPath>
</defs>
</svg>
