<svg width="491" height="92" viewBox="0 0 491 92" fill="none" xmlns="http://www.w3.org/2000/svg">
<g clip-path="url(#clip0_5422_3473)">
<path d="M116.689 13.5969C115.005 13.8935 113.447 13.8988 111.8 13.3215C105.058 10.9485 98.1853 10.7525 91.407 12.9189C76.5452 17.6701 66.6094 29.8104 67.2988 45.8014C67.5408 51.4319 68.7776 56.7816 71.6457 61.6865C72.1983 62.6293 73.0666 63.6145 71.6405 64.6421C69.1565 66.4271 66.7199 68.2757 63.657 70.5427C63.9096 69.4198 63.9886 69.0013 64.0991 68.5935C67.0514 57.5603 64.0307 49.0589 54.6526 42.3903C52.7844 41.0661 53.9316 40.4622 54.9842 39.763C63.5833 34.0266 64.8516 20.3344 58.8522 12.3574C53.779 5.60932 46.6692 2.82851 38.4542 2.74906C28.292 2.64842 18.1298 2.69609 7.96765 2.6749C2.5787 2.66431 0.0841988 5.07964 0.0420976 10.5512C-0.0210542 18.0409 -3.57395e-06 25.5306 0.0105217 33.0202C0.021047 47.3851 0.0105217 61.75 0.0684109 76.1096C0.0894615 81.5706 2.64711 84.1237 7.88345 84.1237C16.73 84.1237 25.5817 84.1449 34.4283 84.0919C41.9959 84.0442 49.7689 85.1195 56.284 79.8915C57.0629 80.8715 56.7735 81.6872 56.7945 82.4393C56.8945 86.2424 58.6943 88.9597 61.994 90.6917C66.4357 93.017 70.8616 92.2384 75.0033 88.4088C78.8819 84.8229 82.1815 80.6967 85.6128 76.6976C86.4074 75.7706 87.0916 74.7907 88.6651 75.5429C97.5327 79.7909 106.516 79.1076 115.505 75.9401C117.204 75.3416 118.536 75.5376 119.746 76.92C121.194 78.5726 122.725 80.1511 124.204 81.7719C127.051 84.8917 129.645 85.7286 132.787 84.5104C135.555 83.4404 136.729 81.1681 136.518 76.8459C136.034 66.8032 136.439 56.7552 136.187 46.7177C136.118 43.9581 136.518 41.3362 137.397 38.6931C138.86 34.2915 139.381 29.7309 138.06 25.1757C135.476 16.2771 127.098 11.743 116.673 13.5969H116.689ZM21.2664 18.0568C23.5451 18.1256 25.8238 18.078 28.1026 18.078V18.1256C30.3813 18.1256 32.6705 17.9879 34.9335 18.1521C41.1013 18.5918 44.3536 23.0676 43.059 29.1377C42.4801 31.8602 40.6803 33.4757 38.1753 34.159C32.4127 35.7216 26.4974 34.8741 20.6454 35.0436C19.535 35.0754 19.456 34.2226 19.4508 33.3857C19.435 28.8887 19.456 24.397 19.3981 19.9001C19.3771 18.5176 19.9244 18.025 21.2664 18.0674V18.0568ZM36.2228 69.1549C33.8599 69.2026 31.497 69.1602 29.134 69.1602C29.134 69.0967 29.134 69.0331 29.134 68.9696C26.5922 68.9696 24.0556 68.9272 21.5137 68.9855C20.1402 69.0172 19.4192 68.6729 19.4297 67.0892C19.4718 62.1579 19.4297 57.2213 19.3455 52.29C19.3192 50.828 19.8034 50.2613 21.3137 50.2878C26.3922 50.3672 31.4759 50.2295 36.5491 50.3831C42.2328 50.5526 46.2955 54.5888 46.2587 59.7531C46.2166 64.9917 41.9117 69.0437 36.2228 69.1549ZM134.545 33.3274C132.582 43.7515 127.277 51.9139 118.062 57.2901C113.526 59.9385 108.626 60.6324 103.611 59.091C99.6904 57.8887 96.5644 58.8262 93.8909 61.7871C87.5916 68.7683 81.2974 75.7442 75.0086 82.7306C73.7771 84.0972 72.6982 85.628 71.1247 86.645C68.0934 88.6048 63.957 88.0857 61.7835 85.4956C59.6574 82.9637 59.9363 79.1129 62.6518 76.4327C66.6725 72.4654 71.4457 69.4675 76.0242 66.2205C80.1765 63.2808 84.2603 60.2404 88.3915 57.2689C91.5122 55.0284 92.97 52.3429 92.1543 48.2326C90.1018 37.9039 94.1751 29.9958 102.48 24.0686C107.869 20.2179 113.784 17.739 119.02 17.6119C128.246 17.6224 132.861 20.6522 134.434 26.7647C134.992 28.9417 134.961 31.1663 134.55 33.3327L134.545 33.3274Z" fill="#F56401"/>
<path d="M162.116 27.056C161.927 27.2096 161.653 27.2626 160.958 27.5592C160.958 26.2403 160.958 25.2922 160.958 24.3388C160.964 18.6129 161.042 12.8871 160.958 7.16656C160.885 2.46301 158.632 0.248949 154.001 0.0423743C153.301 0.0105936 152.601 0 151.901 0C145.107 0.0105936 143.092 2.02338 143.092 8.79268C143.092 30.4566 143.097 52.1204 143.113 73.7843C143.113 75.1032 143.123 76.4327 143.307 77.7357C143.976 82.4022 145.791 84.0919 150.717 84.7911C155.985 85.5379 159.216 84.1343 160.879 80.1564C161.5 78.6733 162.058 78.6362 163.079 79.6902C165.126 81.8196 167.616 83.2444 170.378 84.2402C181.43 88.2128 195.176 83.8059 201.96 74.0968C210.164 62.3485 210.448 46.3946 202.681 33.9683C193.845 19.8365 175.167 16.6531 162.121 27.056H162.116ZM187.456 62.8782C182.967 71.4325 171.226 72.1635 164.863 64.5573C159.258 57.8516 159.837 46.8289 166.116 40.7376C168.81 38.1263 171.71 37.0034 175.867 36.9716C180.209 36.8657 183.751 38.4706 186.166 42.1466C190.534 48.7888 191.129 55.8706 187.45 62.8835L187.456 62.8782Z" fill="#F56401"/>
<path d="M315.238 42.5174C314.585 33.5605 310.37 26.7329 301.544 23.6714C293.614 20.9224 281.899 23.6661 277.557 30.0699C276.02 32.3369 274.952 31.9662 273.31 30.0646C266.927 22.6544 258.901 21.4361 249.907 24.1163C245.981 25.2869 243.045 27.8929 239.803 31.018C239.577 29.8528 239.466 29.1854 239.308 28.5286C238.624 25.5941 237.156 24.3547 234.167 24.2487C231.63 24.1587 229.088 24.0263 226.546 24.0792C223.636 24.1322 222.326 25.3929 222.31 28.2902C222.231 45.9179 222.005 63.5457 222.473 81.1681C222.547 83.9065 223.82 85.2148 226.531 85.3367C229.157 85.4532 231.788 85.4108 234.414 85.3896C239.65 85.342 240.624 84.3356 240.613 78.954C240.592 68.9961 240.492 59.0328 240.54 49.0748C240.566 43.3808 244.539 39.3022 249.986 39.0957C255.933 38.8679 259.396 42.0195 259.927 48.2273C260.069 49.8905 260.043 51.5749 260.054 53.2487C260.133 62.1473 260.111 71.0512 260.317 79.9498C260.411 83.9701 261.901 85.1778 265.948 85.1989C268.4 85.2095 270.858 85.2095 273.31 85.1407C277.22 85.0295 278.236 83.9754 278.22 79.9975C278.173 70.3044 278.078 60.6112 278.02 50.9128C277.994 46.5165 279.32 42.671 283.125 40.208C289.788 35.8911 297.408 40.155 297.787 48.4551C298.018 53.5559 297.866 58.6779 297.892 63.7893C297.918 69.0755 297.887 74.367 297.992 79.6532C298.06 82.9743 299.497 84.95 302.207 85.0983C305.786 85.2943 309.391 85.1936 312.98 85.0612C314.643 84.9977 315.732 84.0813 315.717 82.1798C315.606 68.9643 316.19 55.7223 315.232 42.5333L315.238 42.5174Z" fill="#F56401"/>
<path d="M480.537 32.088C470.791 18.9307 448.467 17.49 435.742 28.7616C424.448 38.7619 422.706 56.4691 428.374 68.9113C431.721 76.2526 437.747 80.8397 445.299 83.4086C457.456 87.5454 468.939 86.2795 479.601 78.9434C482.464 76.973 482.969 74.7695 481.637 71.6021C479.927 67.5288 477.348 66.4165 473.286 68.0797C468.391 70.0872 463.45 71.7715 458.034 71.4379C450.777 70.9876 445.678 67.2216 444.094 61.072C443.604 59.1705 443.731 58.127 446.183 58.1906C451.961 58.3442 457.745 58.2382 463.523 58.2382V58.2224C469.218 58.2224 474.912 58.2329 480.606 58.2224C484 58.2118 485.453 57.0888 485.795 53.6512C486.568 45.8755 485.279 38.4971 480.543 32.0933L480.537 32.088ZM467.812 46.7495C464.144 46.6859 460.476 46.7283 456.803 46.7283C456.803 46.7283 456.803 46.7336 456.803 46.7389C453.135 46.7389 449.462 46.7071 445.794 46.7548C444.241 46.776 443.741 46.1774 444.178 44.6679C445.088 41.5004 446.746 38.8573 449.635 37.2206C453.845 34.837 458.319 34.6569 462.813 36.246C466.749 37.639 468.554 40.8595 469.491 44.7473C469.875 46.3417 469.312 46.776 467.812 46.7495Z" fill="#F56401"/>
<path d="M359.728 22.5537C352.018 20.6045 344.282 20.6999 336.625 22.9616C329.442 25.0856 327.321 28.1366 327.71 35.6898C327.931 40.0067 329.763 41.1879 333.72 39.5458C334.531 39.2121 335.299 38.7831 336.094 38.4176C340.941 36.2195 345.966 35.4726 351.213 36.5743C356.613 37.7079 359.533 41.0131 360.149 46.5482C360.339 48.2697 360.06 48.847 358.213 48.0737C353.534 46.1139 348.587 45.4835 343.546 45.6319C330.257 46.0185 320.785 56.0242 321.948 68.4081C322.711 76.5545 329.094 83.4933 337.12 84.7381C345.851 86.0941 353.655 84.3302 360.081 77.0842C360.533 78.6362 360.833 79.722 361.165 80.8026C361.723 82.6141 363.002 83.6575 364.828 83.6946C368.327 83.7688 371.838 83.7264 375.337 83.5993C377.263 83.5304 378.326 82.5346 378.295 80.3841C378.126 68.8424 378.458 57.2954 377.679 45.7696C376.848 33.4386 370.559 25.2869 359.733 22.5537H359.728ZM360.06 61.7765C359.891 66.1516 357.649 68.9536 353.802 70.6804C349.808 72.476 345.819 72.7514 342.067 70.2408C339.593 68.5882 339.278 65.9398 339.699 63.1801C340.177 60.0444 342.125 58.1747 345.03 57.3325C346.435 56.9246 347.945 56.8769 349.408 56.6651C352.429 56.8822 355.281 57.5708 358.102 58.5984C359.723 59.1916 360.118 60.161 360.054 61.7765H360.06Z" fill="#F56401"/>
<path d="M416.207 69.155C410.407 69.5098 408.029 67.5024 407.892 61.6441C407.718 53.9849 407.829 46.3205 407.734 38.656C407.713 36.9663 408.429 36.5532 409.939 36.5797C412.828 36.6326 415.723 36.6168 418.606 36.5055C421.759 36.3837 423.385 34.6463 423.501 31.4789C423.574 29.5138 423.296 27.6175 422.475 25.8166C421.348 23.3483 419.596 21.9234 416.744 22.0665C414.56 22.1724 412.36 22.0135 410.181 22.1671C408.297 22.2995 407.692 21.5421 407.781 19.7306C407.881 17.7125 407.765 15.6785 407.765 13.6552C407.765 11.7536 407.06 10.1328 405.518 9.11051C401.545 6.46741 397.209 6.37736 392.977 8.16238C389.436 9.65078 389.878 13.0831 389.946 16.1764C389.946 16.3512 389.946 16.5313 389.946 16.7061C389.951 21.8758 389.951 21.8917 384.883 21.9023C382.652 21.9076 380.694 22.2942 379.779 24.7202C377.405 31.0021 381.115 36.6856 387.678 36.5797C389.593 36.5479 390.046 37.1994 390.004 38.995C389.899 43.7462 389.967 48.5081 389.967 53.2646C389.983 53.2646 389.999 53.2646 390.009 53.2646C390.009 57.8463 389.988 62.4227 390.014 67.0045C390.046 72.6402 392.062 77.4709 396.677 80.702C403.813 85.6915 411.623 86.4066 419.606 82.9425C423.722 81.1575 425.032 77.5769 423.795 73.011C422.959 69.9124 420.901 68.8689 416.217 69.155H416.207Z" fill="#F56401"/>
<path d="M119.525 21.2931C119.267 21.256 119.004 21.2878 118.42 21.2878C112.831 21.5844 107.753 23.8197 103.548 27.9989C103.032 28.5127 102.222 29.18 103.085 29.9746C103.753 30.5943 104.358 29.9693 104.916 29.5508C105.685 28.9735 106.437 28.3749 107.226 27.84C110.995 25.271 115.189 23.9309 119.699 23.5019C120.43 23.433 121.494 23.6396 121.494 22.4902C121.488 21.2454 120.357 21.4149 119.531 21.2931H119.525Z" fill="#F56401"/>
<path d="M67.3777 77.5662C65.541 77.6457 64.3464 78.5461 64.2517 80.4212C64.1517 82.4605 65.4042 83.541 67.3145 83.6205C69.1512 83.6946 70.3195 82.5823 70.4458 80.7708C70.5879 78.7262 69.2933 77.7887 67.3777 77.5662Z" fill="#F56401"/>
<path d="M106.132 49.1542C102.853 49.2866 101.816 47.4804 102.09 44.4983C102.153 43.8204 101.974 43.2165 101.19 43.19C100.474 43.1688 100.132 43.7303 99.985 44.3659C99.8903 44.7897 99.8903 45.2346 99.8745 45.3776C99.8429 49.4455 103.169 52.3217 106.105 51.0505C106.669 50.8068 107.279 50.5579 107.142 49.7634C107.047 49.2178 106.558 49.1383 106.132 49.1542Z" fill="#F56401"/>
<path d="M104.469 37.9462C104.327 36.2513 103.427 35.1972 101.848 35.0754C100.196 34.9483 99.1747 36.0076 99.0642 37.6072C98.9536 39.2334 99.8115 40.3086 101.543 40.3563C103.201 40.3987 104.101 39.4505 104.464 37.9409L104.469 37.9462Z" fill="#F56401"/>
<path d="M112.968 47.348C111.421 47.4063 110.453 48.4551 110.405 50.0812C110.358 51.8132 111.505 52.4806 113.026 52.7772C114.489 52.4859 115.689 51.8132 115.699 50.1288C115.715 48.3809 114.684 47.2845 112.968 47.348Z" fill="#F56401"/>
</g>
<defs>
<clipPath id="clip0_5422_3473">
<rect width="491" height="92" fill="white"/>
</clipPath>
</defs>
</svg>
